# xmcd
#
# Track frame offsets:
#	150
#	22887
#	52812
#	72139
#	90438
#	113090
#	129640
#	149969
#	169760
#	189447
#	203877
#	220070
#	243638
#	265855
#	283707
#	301446
#
# Disc length: 4291 seconds
#
# Revision: 0
# Processed by: cddbd v1.5.2PL0 Copyright (c) Steve Scherf et al.
# Submitted via: dBpowerAMP V4.0
#
DISCID=ea10c110
DTITLE=Various Artist - deuces wild
DYEAR=1900
DGENRE=
TTITLE0=b.b. king - Track01
TTITLE1=b.b. king - Track02
TTITLE2=b.b. king - Track03
TTITLE3=b.b. king - Track04
TTITLE4=b.b. king - Track05
TTITLE5=b.b. king - Track06
TTITLE6=b.b. king - Track07
TTITLE7=b.b. king - Track08
TTITLE8=b.b. king - Track09
TTITLE9=b.b. king - Track10
TTITLE10=b.b. king - Track11
TTITLE11=b.b. king - Track12
TTITLE12=b.b. king - Track13
TTITLE13=b.b. king - Track14
TTITLE14=b.b. king - Track15
TTITLE15=b.b. king - Track16
EXTD=
EXTT0=
EXTT1=
EXTT2=
EXTT3=
EXTT4=
EXTT5=
EXTT6=
EXTT7=
EXTT8=
EXTT9=
EXTT10=
EXTT11=
EXTT12=
EXTT13=
EXTT14=
EXTT15=
PLAYORDER=
